<svg id="Capa_1" enable-background="new 0 0 512 512" height="512" viewBox="0 0 512 512" width="512" xmlns="http://www.w3.org/2000/svg"><g><path d="m444.125 263.815v-29.924h-63.327v-5.89c0-37.429-16.457-71.081-42.508-94.118l76.385-48.138v-85.745h-29.924v69.232l-73.542 46.347c-16.885-8.453-35.922-13.221-56.055-13.221-20.516 0-39.899 4.944-57.022 13.702l-70.886-46.638v-69.422h-29.922v85.554l74.168 48.798c-25.745 23.024-41.979 56.474-41.979 93.649v5.89h-61.638v29.924h61.638v41.469h-61.638v29.924h61.638v26.503c0 4.302.218 8.554.643 12.746h-62.281v29.924h69.103c3.797 10.484 8.953 20.322 15.252 29.303l-54.032 57.902 21.878 20.414 52.203-55.942c22.136 19.468 51.149 31.294 82.876 31.294 31.692 0 60.676-11.8 82.803-31.23l49.709 53.435 21.909-20.382-51.55-55.414c6.324-9.002 11.499-18.867 15.307-29.382h70.792v-29.924h-63.969c.424-4.192.643-8.444.643-12.746v-26.503h63.327v-29.924h-63.327v-41.469h63.326zm-284.688-35.814c0-52.779 42.939-95.718 95.718-95.718 52.78 0 95.719 42.939 95.719 95.718v5.89h-191.437zm0 133.709v-97.895h80.757v192.442c-45.698-7.205-80.757-46.856-80.757-94.547zm191.437 0c0 47.69-35.059 87.342-80.757 94.546v-192.441h80.757z"/></g></svg>