<?xml version="1.0" encoding="iso-8859-1"?>
<!-- Generator: Adobe Illustrator 19.0.0, SVG Export Plug-In . SVG Version: 6.00 Build 0)  -->
<svg version="1.1" id="Capa_1" xmlns="http://www.w3.org/2000/svg" xmlns:xlink="http://www.w3.org/1999/xlink" x="0px" y="0px"
	 fill ="#fcd088" viewBox="0 0 469.333 469.333" style="enable-background:new 0 0 469.333 469.333;" xml:space="preserve">
<g>
	<g>
		<g>
			<rect x="298.667" y="384" width="42.667" height="42.667"/>
			<path d="M42.667,85.333V384c0,23.573,19.093,42.667,42.667,42.667h85.333V384H85.333V85.333h85.333V42.667H85.333
				C61.76,42.667,42.667,61.76,42.667,85.333z"/>
			<rect x="213.333" y="0" width="42.667" height="469.333"/>
			<path d="M384,42.667v42.667h42.667C426.667,61.76,407.573,42.667,384,42.667z"/>
			<rect x="384" y="213.333" width="42.667" height="42.667"/>
			<rect x="298.667" y="42.667" width="42.667" height="42.667"/>
			<rect x="384" y="128" width="42.667" height="42.667"/>
			<rect x="384" y="298.667" width="42.667" height="42.667"/>
			<path d="M384,426.667c23.573,0,42.667-19.093,42.667-42.667H384V426.667z"/>
		</g>
	</g>
</g>
</svg>
