<svg id="Layer_1" fill="#fcd088" enable-background="new 0 0 512.003 512.003" viewBox="0 0 512.003 512.003" xmlns="http://www.w3.org/2000/svg"><g><path d="m447.566 235.441c-.84-18.995-1.565-35.4-1.565-45.44 0-50.552-19.818-98.211-55.804-134.197-35.985-35.986-83.643-55.804-134.196-55.804-25.689 0-50.659 5.108-74.214 15.181-5.078 2.171-7.434 8.048-5.262 13.126 2.171 5.077 8.047 7.434 13.126 5.262 21.056-9.004 43.38-13.569 66.35-13.569 93.738 0 170 76.262 170 170.001 0 10.482.7 26.299 1.585 46.323 1.81 40.93 4.289 96.985 2.339 146.873-2.766 70.78-13.297 96.037-21.644 104.761-3.469 3.625-6.387 4.045-8.28 4.045-3.921 0-5.911-1.806-10.597-6.966-5.182-5.706-12.278-13.521-25.403-13.521s-20.222 7.815-25.403 13.521c-4.686 5.16-6.676 6.966-10.597 6.966s-5.911-1.806-10.597-6.966c-5.182-5.706-12.278-13.521-25.403-13.521s-20.222 7.815-25.403 13.521c-4.686 5.16-6.676 6.966-10.597 6.966s-5.911-1.806-10.597-6.966c-5.182-5.706-12.278-13.521-25.403-13.521s-20.221 7.814-25.403 13.521c-4.687 5.161-6.676 6.966-10.597 6.966s-5.911-1.806-10.597-6.966c-5.182-5.706-12.278-13.521-25.403-13.521s-20.221 7.814-25.403 13.521c-4.686 5.161-6.676 6.966-10.597 6.966-1.893 0-4.811-.419-8.28-4.045-8.347-8.724-18.878-33.981-21.644-104.761-1.95-49.888.529-105.943 2.339-146.873.885-20.024 1.585-35.841 1.585-46.323 0-38.459 12.676-74.809 36.658-105.12 3.427-4.331 2.693-10.62-1.638-14.047-4.33-3.426-10.62-2.694-14.047 1.638-26.805 33.879-40.974 74.52-40.974 117.529 0 10.04-.725 26.445-1.565 45.44-5.141 116.261-7.458 232.592 24.834 266.343 6.396 6.685 14.256 10.219 22.731 10.219 13.125 0 20.222-7.815 25.403-13.521 4.686-5.16 6.676-6.966 10.597-6.966s5.911 1.806 10.597 6.966c5.182 5.706 12.278 13.521 25.403 13.521s20.221-7.815 25.403-13.521c4.687-5.161 6.676-6.966 10.597-6.966s5.911 1.806 10.597 6.966c5.182 5.706 12.278 13.521 25.403 13.521s20.221-7.814 25.403-13.521c4.686-5.161 6.676-6.966 10.597-6.966s5.911 1.806 10.597 6.966c5.182 5.706 12.278 13.521 25.403 13.521s20.221-7.814 25.403-13.521c4.686-5.161 6.676-6.966 10.597-6.966s5.911 1.806 10.597 6.966c5.182 5.706 12.278 13.521 25.403 13.521 8.475 0 16.335-3.534 22.731-10.219 32.293-33.751 29.977-150.082 24.835-266.343z"/><path d="m311.003 254.475c8.692 0 15-8.411 15-20s-6.309-20-15-20-15 8.411-15 20 6.309 20 15 20z"/><ellipse cx="201" cy="234.475" rx="15" ry="20"/><path d="m316.004 304.475c14.106 0 27.098-7.834 36.582-22.061 8.652-12.979 13.417-30.004 13.417-47.94s-4.765-34.96-13.417-47.939c-9.484-14.226-22.476-22.06-36.582-22.06s-27.098 7.834-36.582 22.06c-8.653 12.979-13.418 30.004-13.418 47.939s4.765 34.961 13.418 47.94c9.484 14.227 22.475 22.061 36.582 22.061zm0-120c16.261 0 30 22.897 30 50s-13.738 50-30 50-30-22.897-30-50 13.738-50 30-50z"/><path d="m159.417 282.415c9.484 14.226 22.476 22.061 36.583 22.061s27.098-7.834 36.583-22.061c8.651-12.979 13.417-30.005 13.417-47.94s-4.765-34.96-13.418-47.939c-9.484-14.226-22.476-22.06-36.582-22.06s-27.098 7.834-36.582 22.06c-8.653 12.978-13.418 30.003-13.418 47.939s4.765 34.961 13.417 47.94zm36.583-97.94c16.262 0 30 22.897 30 50s-13.738 50-30 50-30-22.897-30-50 13.738-50 30-50z"/><path d="m146.876 57.097c5.523 0 10-4.477 10-10s-4.477-10-10-10h-.008c-5.523 0-9.996 4.477-9.996 10s4.481 10 10.004 10z"/></g></svg>