<svg id="Capa_1" enable-background="new 0 0 511.52 511.52" height="512" viewBox="0 0 511.52 511.52" width="512" xmlns="http://www.w3.org/2000/svg"><g><g><g><path d="m359.174 337.984-49.506-49.506-10.607 10.606 24.426 34.426 25.08 15.081z" fill="#446bae"/><path d="m311.011 294.134h15v70.013h-15z" fill="#07485e" transform="matrix(.707 -.707 .707 .707 -139.448 321.623)"/></g><path d="m466.397 417.927-99.016-99.016-24.246 24.247 47.352 67.352 62.069 42.069z" fill="#ffe477"/><path d="m343.135 343.158-24.286 24.286 99.015 99.015 34.692-13.88z" fill="#ffb655"/></g><g><path d="m511.457 462.987-45.06-45.06-24.247 24.246 14.247 34.247 30.813 10.813z" fill="#ffb655"/><path d="m435.364 444.984h34.346v63.724h-34.346z" fill="#ff7c48" transform="matrix(.707 -.707 .707 .707 -204.636 459.655)"/></g><g><g><path d="m299.697 299.72c65.133-65.134 65.133-170.736 0-235.869s-170.736-65.134-235.869 0l110.445 130.445z" fill="#addbfd"/><path d="m63.827 63.851c-65.134 65.133-65.134 170.736 0 235.869s170.736 65.133 235.869 0z" fill="#93bdfc"/></g><g><path d="m310.303 53.244c-34.335-34.335-79.984-53.244-128.541-53.244s-94.207 18.909-128.541 53.244l.606 20.606 20.606.606c28.669-28.667 66.786-44.456 107.329-44.456s78.66 15.789 107.329 44.457c59.18 59.181 59.18 155.476 0 214.656l.606 20.606 20.607.607c70.876-70.878 70.876-186.204-.001-257.082z" fill="#446bae"/><path d="m181.762 333.57c-40.543 0-78.66-15.789-107.328-44.457-59.18-59.181-59.18-155.476 0-214.656l-21.213-21.213c-70.877 70.878-70.877 186.204 0 257.082 34.334 34.335 79.984 53.244 128.541 53.244s94.206-18.909 128.541-53.244l-21.213-21.213c-28.669 28.668-66.785 44.457-107.328 44.457z" fill="#07485e"/></g></g><g><path d="m265.74 253.16 7.381-29.078-49.237-12.499v-21.723l49.237-12.498-7.381-29.078-43.977 11.162c-3.14-9.524-9.578-17.546-17.971-22.708l26.449-26.449-21.213-21.213-27.267 27.267-27.241-27.24-21.213 21.213 26.423 26.423c-4.673 2.874-8.737 6.636-11.966 11.049l34.555 54.555 66.529 46.529z" fill="#446bae"/><path d="m147.765 147.788c-2.57 3.513-4.613 7.437-6.004 11.658l-43.976-11.162-7.381 29.078 49.237 12.498v21.723l-49.238 12.499 7.382 29.078 43.976-11.163c5.538 16.798 21.349 28.927 40.001 28.927 18.653 0 34.463-12.129 40.001-28.927l27.086 6.876z" fill="#07485e"/></g></g></svg>