<?xml version="1.0" encoding="iso-8859-1"?>
<!-- Generator: Adobe Illustrator 18.1.1, SVG Export Plug-In . SVG Version: 6.00 Build 0)  -->
<svg version="1.1" id="Capa_1" xmlns="http://www.w3.org/2000/svg" xmlns:xlink="http://www.w3.org/1999/xlink" x="0px" y="0px"
	 viewBox="0 0 358.012 358.012" fill="#fcd088" style="enable-background:new 0 0 358.012 358.012;" xml:space="preserve">
<g>
	<g>
		<path d="M283.432,23.867c-25.496,0-46.249,20.747-46.249,46.243s20.753,46.243,46.249,46.243
			c25.496,0,46.243-20.747,46.243-46.243S308.929,23.867,283.432,23.867z M283.432,104.42c-18.921,0-34.315-15.395-34.315-34.31
			s15.395-34.31,34.315-34.31s34.309,15.395,34.309,34.31S302.353,104.42,283.432,104.42z"/>
		<path d="M74.592,241.658c-25.496,0-46.243,20.747-46.243,46.243s20.747,46.243,46.243,46.243
			s46.243-20.747,46.243-46.243S100.088,241.658,74.592,241.658z M74.592,322.211c-18.915,0-34.31-15.389-34.31-34.31
			s15.395-34.309,34.31-34.309s34.31,15.389,34.31,34.309S93.507,322.211,74.592,322.211z"/>
		<path d="M283.432,0c-29.673,0-55.993,18.951-65.922,46.243h-56.405v64.209
			c-30.407,7.942-52.21,35.419-52.21,67.807s21.797,59.866,52.21,67.813v28.402H143.33c-6.355-32.15-35.055-56.685-68.744-56.685
			c-38.659,0-70.111,31.451-70.111,70.111s31.451,70.111,70.111,70.111c30.449,0,56.954-19.559,66.405-47.735h55.91v-64.204
			c30.413-7.948,52.21-35.425,52.21-67.813s-21.797-59.872-52.21-67.807V82.044h17.423c5.686,32.991,34.506,58.177,69.102,58.177
			c38.659,0,70.111-31.451,70.111-70.111S322.092,0,283.432,0z M283.432,128.288c-32.084,0-58.183-26.099-58.183-58.177h-40.276
			v50.277c29.285,2.995,52.21,27.812,52.21,57.873s-22.925,54.877-52.21,57.873v62.211h-53.195
			c-4.941,27.107-28.677,47.735-57.186,47.735c-32.078,0-58.177-26.099-58.177-58.177s26.099-58.177,58.177-58.177
			c31.577,0,57.3,25.3,58.099,56.685h40.348v-50.277c-29.285-2.995-52.21-27.812-52.21-57.873s22.925-54.877,52.21-57.873V58.177
			h53.451c5.519-26.374,28.951-46.243,56.942-46.243c32.078,0,58.177,26.099,58.177,58.177S315.51,128.288,283.432,128.288z"/>
		<path d="M132.769,178.26c0,25.496,20.747,46.243,46.243,46.243s46.243-20.747,46.243-46.243
			s-20.747-46.243-46.243-46.243C153.51,132.017,132.769,152.764,132.769,178.26z M213.316,178.26
			c0,18.921-15.389,34.31-34.31,34.31c-18.915,0-34.309-15.389-34.309-34.31c0-18.915,15.389-34.309,34.309-34.309
			S213.316,159.345,213.316,178.26z"/>
	</g>
</g>
<g>
</g>
<g>
</g>
<g>
</g>
<g>
</g>
<g>
</g>
<g>
</g>
<g>
</g>
<g>
</g>
<g>
</g>
<g>
</g>
<g>
</g>
<g>
</g>
<g>
</g>
<g>
</g>
<g>
</g>
</svg>
