<?xml version="1.0" encoding="utf-8"?>
<!-- Generator: Adobe Illustrator 16.0.3, SVG Export Plug-In . SVG Version: 6.00 Build 0)  -->
<!DOCTYPE svg PUBLIC "-//W3C//DTD SVG 1.1//EN" "http://www.w3.org/Graphics/SVG/1.1/DTD/svg11.dtd">
<svg version="1.1" id="Layer_1" xmlns="http://www.w3.org/2000/svg" xmlns:xlink="http://www.w3.org/1999/xlink" x="0px" y="0px"
 viewBox="0 0 1000 1000" enable-background="new 0 0 1000 1000" xml:space="preserve">
<path id="path1948" fill="#CD9E6A" d="M495.043,8.143c-40.15,0.188-78.487,3.61-112.222,9.58
	C283.443,35.283,265.4,72.029,265.4,139.798v89.503h234.843v29.834H265.4h-88.135c-68.252,0-128.015,41.022-146.708,119.064
	c-21.563,89.452-22.521,145.272,0,238.675c16.692,69.531,56.56,119.064,124.812,119.064h80.745V628.645
	c0-77.512,67.067-145.887,146.708-145.887h234.574c65.298,0,117.422-53.759,117.422-119.338V139.798
	c0-63.638-53.698-111.451-117.422-122.075C577.049,11.009,535.188,7.955,495.043,8.143z M368.041,80.129
	c24.258,0,44.067,20.135,44.067,44.889c0,24.668-19.81,44.615-44.067,44.615c-24.347,0-44.067-19.947-44.067-44.615
	C323.974,100.264,343.694,80.129,368.041,80.129z"/>
<path id="path1950" fill="#FCD088" d="M764.104,259.136v104.284c0,80.856-68.548,148.899-146.709,148.899H382.821
	c-64.253,0-117.421,54.99-117.421,119.338v223.621c0,63.646,55.341,101.084,117.421,119.338c74.338,21.862,145.618,25.814,234.574,0
	c59.122-17.115,117.422-51.568,117.422-119.338v-89.504H500.243v-29.834h234.574h117.422c68.248,0,93.678-47.608,117.422-119.064
	c24.515-73.56,23.471-144.305,0-238.675c-16.867-67.94-49.089-119.064-117.422-119.064H764.104z M632.176,825.443
	c24.344,0,44.068,19.946,44.068,44.614c0,24.754-19.725,44.889-44.068,44.889c-24.258,0-44.066-20.135-44.066-44.889
	C588.109,845.39,607.918,825.443,632.176,825.443z"/>
</svg>
