<svg viewBox="0 0 60 60" xmlns="http://www.w3.org/2000/svg"><g id="Page-1" fill="none" fill-rule="evenodd"><g id="033---Computer-Ghost" fill-rule="nonzero" transform="translate(-1)"><path id="Shape" d="m60 43v3.82c.0452102 1.152631-.8477494 2.1259569-2 2.18h-50c-1.15225064-.0540431-2.04521019-1.027369-2-2.18v-3.82z" fill="#607d82"/><path id="Shape" d="m57 43v3.82c.0452102 1.152631-.8477494 2.1259569-2 2.18h3c1.1522506-.0540431 2.0452102-1.027369 2-2.18v-3.82z" fill="#37474f"/><path id="Shape" d="m60 7.18v35.82h-54v-35.82c-.04521019-1.152631.84774936-2.12595691 2-2.18h50c1.1522506.05404309 2.0452102 1.027369 2 2.18z" fill="#02a0eb"/><path id="Shape" d="m58 5h-3c1.1522506.05404309 2.0452102 1.027369 2 2.18v35.82h3v-35.82c.0452102-1.152631-.8477494-2.12595691-2-2.18z" fill="#0377b3"/><path id="Shape" d="m44 55h-22l3-6h16z" fill="#37474f"/><path id="Shape" d="m50 57c-.0032948 1.1032019-.8967981 1.9967052-2 2h-30c-1.1011688-.0081672-1.9918328-.8988312-2-2 .0032948-1.1032019.8967981-1.9967052 2-2h30c1.1011688.0081672 1.9918328.8988312 2 2z" fill="#607d82"/><path id="Shape" d="m49.41 55.59c-.3704612-.3798589-.8794095-.5928231-1.41-.59l-3-.0000277c1.1011688.0081949 1.9918328.8988589 2 2.0000277-.0032948 1.1032019-.8967981 1.9967052-2 2h3c1.1032019-.0032948 1.9967052-.8967981 2-2 .0028231-.5305905-.2101411-1.0395388-.59-1.41z" fill="#37474f"/><path id="Shape" d="m35.8 19.2c-3.93 12.36-13.97 17.54-18.04 19.18-1.8036809-2.586925-2.7673163-5.6663684-2.76-8.82v-2.21c.0008234-.2555548-.1280244-.494085-.3422014-.6335022-.214177-.1394171-.4844471-.16069-.7177986-.0564978-1.27.57-4.01 1.37-9.05 1.59-.75440545.0361492-1.49062856-.2386635-2.03682931-.7602947-.54620076-.5216311-.85458398-1.2444356-.85317069-1.9997053-.03302335-1.3561083.96447675-2.5176993 2.31-2.69 8.41-1.09 9.65-4.92 9.69-11.8.033457-5.23505124 4.0707486-9.57220625 9.29-9.98.4762983-.02650195.9537017-.02650195 1.43 0 5.2087955.40156691 9.2419302 4.72588697 9.28 9.95.02 3.53.35 6.26 1.8 8.23z" fill="#ececec"/><path id="Shape" d="m34 10.97c-.0152725-2.9056389-1.2912397-5.66152746-3.4970028-7.55297654s-5.1240284-2.7321285-7.9979972-2.30402346c4.8604496.76737879 8.4535162 4.93652035 8.495 9.857.02 3.53.35 6.26 1.8 8.23-2.5623807 7.9217311-8.2343827 14.461823-15.714 18.119.211.363.434.718.674 1.061 4.07-1.64 14.11-6.82 18.04-19.18-1.45-1.97-1.78-4.7-1.8-8.23z" fill="#c6cfd3"/><ellipse id="Oval" cx="20" cy="10.5" fill="#37474f" rx="2" ry="2.5"/><ellipse id="Oval" cx="28" cy="10.5" fill="#37474f" rx="2" ry="2.5"/><circle id="Oval" cx="24" cy="17" fill="#37474f" r="2"/><path id="Shape" d="m56 12c-.2651948-.0000566-.5195073-.1054506-.707-.293l-2-2c-.3789722-.39237889-.3735524-1.01608478.0121814-1.40181858.3857338-.38573379 1.0094397-.39115363 1.4018186-.01218142l2 2c.2859079.2859943.3714219.7160366.216678 1.0896546-.1547439.3736179-.5192821.6172591-.923678.6173454z" fill="#ececec"/><path id="Shape" d="m56 18c-.2651948-.0000566-.5195073-.1054506-.707-.293l-4-4c-.3789722-.3923789-.3735524-1.0160848.0121814-1.4018186s1.0094397-.3911536 1.4018186-.0121814l4 4c.2859079.2859943.3714219.7160366.216678 1.0896546-.1547439.3736179-.5192821.6172591-.923678.6173454z" fill="#ececec"/><path id="Shape" d="m49 11c-.2651948-.0000566-.5195073-.1054506-.707-.293l-1-1c-.3789722-.39237889-.3735524-1.01608478.0121814-1.40181858.3857338-.38573379 1.0094397-.39115363 1.4018186-.01218142l1 1c.2859079.28599425.3714219.7160366.216678 1.0896546-.1547439.3736179-.5192821.6172591-.923678.6173454z" fill="#ececec"/><g fill="#000"><path id="Shape" d="m58 4h-25.548c-1.9070575-2.32690593-4.6880001-3.76602294-7.689-3.979-.5-.021-.969-.023-1.541 0-2.9933093.21638475-5.7655313 1.65548076-7.665 3.979h-7.557c-1.7044406.05441939-3.04487651 1.47528146-3 3.18v14.5c-.269.043-.53.089-.818.126-1.998605.2874795-3.40921718 2.1080097-3.18851696 4.1150866.22070022 2.007077 1.99319875 3.477589 4.00651696 3.3239134v17.575c-.04487651 1.7047185 1.2955594 3.1255806 3 3.18h15.382l-2 4h-3.382c-1.6568542 0-3 1.3431458-3 3s1.3431458 3 3 3h30c1.6568542 0 3-1.3431458 3-3s-1.3431458-3-3-3h-3.382l-2-4h15.382c1.7044406-.0544194 3.0448765-1.4752815 3-3.18v-39.64c.0448765-1.70471854-1.2955594-3.12558061-3-3.18zm-51 3.18c-.0369584-.59783012.40420433-1.11840214 1-1.18h6.227c-.7968738 1.54469881-1.2173059 3.25589521-1.227 4.994-.034 5.863-.962 8.906-6 10.269zm-2.154 20.071c-.49236516.0247116-.97250346-.1583289-1.32346482-.5045373s-.54053131-.8238064-.52253518-1.3164627c.00092029-.8292881.61581329-1.5297016 1.438-1.638 8.823-1.144 10.519-5.376 10.562-12.786-.0082842-4.9705627 4.0144373-9.00671559 8.985-9.01499987 4.9705627-.00828427 9.0067157 4.01443717 9.015 8.98499987.02 3.456.325 6.229 1.7 8.382-2.2736232 6.7103818-6.8968095 12.3724265-13.017 15.942-1.859-2.957-1.683-5.825-1.683-8.3 0-.5522847-.4477153-1-1-1s-1 .4477153-1 1c0 3.161-.075 6.01 1.94 9.276-.657.34-1.264.625-1.8.861-2.326-3.753-2.14-6.893-2.14-9.787-.0005429-.9689038-.7841037-1.7551466-1.753-1.759-1.035 0-2.104 1.341-9.401 1.66zm44.154 29.749c0 .5522847-.4477153 1-1 1h-30c-.5522847 0-1-.4477153-1-1s.4477153-1 1-1h30c.5522847 0 1 .4477153 1 1zm-6.618-3h-18.764l2-4h14.764zm15.618-6h-50c-.59579567-.0615979-1.0369584-.5821699-1-1.18v-2.82h4c.5522847 0 1-.4477153 1-1s-.4477153-1-1-1h-4v-12.886c2.38811002-.1265714 4.7455909-.5960469 7-1.394v1.84c-.0086924 2.9225038.7673124 5.7937563 2.247 8.314-.323.109-.508.161-.512.162-.4822546.1330206-.7920126.6019461-.7251188 1.0977174.0668938.4957714.4898551.865832.9901188.8662826.7301807-.166716 1.4440154-.3983024 2.133-.692 10.6805002-4.1797128 18.272703-13.7995874 19.856-25.159.0828427-.5462096-.2927904-1.0561572-.839-1.1389999s-1.0561573.2927903-1.139.8389999c-.125.834-.284 1.658-.469 2.47-1.165-4.189.3-6.3-1.761-10.321h24.219c.5957957.06159786 1.0369584.58216988 1 1.18v34.822h-44c-.5522847 0-1 .4477153-1 1s.4477153 1 1 1h44v2.82c.0369584.5978301-.4042043 1.1184021-1 1.18z"/><path id="Shape" d="m20 14c1.7886565-.1503745 3.1249538-1.7093881 3-3.5.1249538-1.79061191-1.2113435-3.34962546-3-3.5-1.7886565.15037454-3.1249538 1.70938809-3 3.5-.1249538 1.7906119 1.2113435 3.3496255 3 3.5zm0-5c.533 0 1 .7 1 1.5s-.467 1.5-1 1.5-1-.7-1-1.5.467-1.5 1-1.5z"/><path id="Shape" d="m28 14c1.7886565-.1503745 3.1249538-1.7093881 3-3.5.1249538-1.79061191-1.2113435-3.34962546-3-3.5-1.7886565.15037454-3.1249538 1.70938809-3 3.5-.1249538 1.7906119 1.2113435 3.3496255 3 3.5zm0-5c.533 0 1 .7 1 1.5s-.467 1.5-1 1.5-1-.7-1-1.5.467-1.5 1-1.5z"/><path id="Shape" d="m21 17c0 1.6568542 1.3431458 3 3 3s3-1.3431458 3-3-1.3431458-3-3-3-3 1.3431458-3 3zm3-1c.5522847 0 1 .4477153 1 1s-.4477153 1-1 1-1-.4477153-1-1 .4477153-1 1-1z"/><path id="Shape" d="m25 40c.1543931.001545.307047-.0326823.446-.1.592-.3 14.51-7.455 16.547-25.785.0392992-.355122-.1138421-.7042341-.4017372-.9158293-.2878951-.2115951-.6668057-.2535268-.994-.11-.3271943.1435269-.5529636.4507073-.5922628.8058293-1.0089588 10.0681253-6.7458254 19.0563657-15.453 24.211-.4144465.2077179-.6317906.6730467-.52508 1.1241847s.5094933.7697843.97308.7698153z"/></g></g></g></svg>