<?xml version="1.0" encoding="utf-8"?>
<!-- Generator: Adobe Illustrator 16.0.3, SVG Export Plug-In . SVG Version: 6.00 Build 0)  -->
<!DOCTYPE svg PUBLIC "-//W3C//DTD SVG 1.1//EN" "http://www.w3.org/Graphics/SVG/1.1/DTD/svg11.dtd">
<svg version="1.1" id="Layer_1" xmlns="http://www.w3.org/2000/svg" xmlns:xlink="http://www.w3.org/1999/xlink" x="0px" y="0px"
	  viewBox="0 0 2000 2000" enable-background="new 0 0 2000 2000" xml:space="preserve">
<g id="Page-1">
	<g id="_x30_33---Computer-Ghost" transform="translate(-1)">
		<path id="Shape_2_" fill="#FCD088" d="M1967.666,239.333v1194H167.667v-1194c-1.507-38.421,28.258-70.865,66.667-72.667H1901
			C1939.408,168.468,1969.174,200.912,1967.666,239.333L1967.666,239.333z"/>
		<path id="Shape_3_" fill="none" d="M1901,166.667h-100c38.408,1.802,68.174,34.246,66.666,72.667v1194h100v-1194
			C1969.174,200.912,1939.408,168.468,1901,166.667z"/>
		<path id="Shape_7_" fill="#FFFFFF" d="M1161,640c-131,412-465.667,584.667-601.333,639.333c-60.123-86.229-92.244-188.879-92-294
			v-73.666c0.027-8.519-4.269-16.47-11.407-21.117c-7.139-4.646-16.147-5.355-23.927-1.883c-42.333,19-133.667,45.666-301.667,53
			c-25.146,1.205-49.688-7.956-67.894-25.344c-18.207-17.389-28.486-41.48-28.439-66.656c-1.101-45.204,32.149-83.924,77-89.667
			c280.333-36.333,321.667-164,323-393.333C435.448,192.165,570.025,47.593,744,34c15.877-0.883,31.79-0.883,47.667,0
			C965.293,47.386,1099.73,191.529,1101,365.667C1101.667,483.333,1112.666,574.333,1161,640L1161,640z"/>
		<path id="Shape_8_" fill="#C6CFD3" d="M1101,365.667c-0.509-96.854-43.041-188.717-116.566-251.766
			C910.909,50.852,813.633,22.83,717.833,37.1C879.849,62.679,999.617,201.65,1001,365.667c0.667,117.667,11.667,208.667,60,274.333
			c-85.413,264.058-274.479,482.061-523.8,603.967c7.033,12.101,14.467,23.935,22.467,35.366C695.333,1224.667,1030,1052,1161,640
			C1112.667,574.333,1101.667,483.333,1101,365.667L1101,365.667z"/>
		<path id="Shape_9_" fill="#FFFFFF" d="M1834.334,400c-8.84-0.002-17.316-3.515-23.566-9.767l-66.668-66.667
			c-12.632-13.079-12.451-33.869,0.406-46.727c12.857-12.858,33.648-13.039,46.729-0.406L1857.9,343.1
			c9.529,9.533,12.381,23.868,7.223,36.322S1847.813,399.997,1834.334,400L1834.334,400z"/>
		<path id="Shape_10_" fill="#FFFFFF" d="M1834.334,600c-8.84-0.002-17.316-3.515-23.566-9.767L1677.434,456.9
			c-12.633-13.08-12.451-33.87,0.406-46.729c12.857-12.857,33.646-13.038,46.727-0.406L1857.9,543.1
			c9.529,9.533,12.381,23.868,7.223,36.322S1847.813,599.997,1834.334,600L1834.334,600z"/>
		<path id="Shape_11_" fill="#FFFFFF" d="M1601,366.667c-8.84-0.001-17.316-3.515-23.566-9.767l-33.334-33.333
			c-12.632-13.079-12.451-33.869,0.406-46.727c12.857-12.858,33.648-13.039,46.729-0.406l33.332,33.333
			c9.531,9.533,12.382,23.868,7.224,36.322C1626.631,358.542,1614.479,366.664,1601,366.667L1601,366.667z"/>
		<g>
			<path id="Shape_12_" d="M1901,133.333h-851.6C985.832,55.77,893.133,7.799,793.1,0.7c-16.666-0.7-32.3-0.767-51.365,0
				c-99.777,7.213-192.186,55.183-255.5,132.633h-251.9c-56.815,1.814-101.496,49.176-100,106v483.333
				c-8.967,1.433-17.667,2.967-27.267,4.199c-66.62,9.583-113.641,70.268-106.284,137.17c7.357,66.901,66.44,115.92,133.551,110.797
				v585.834c-1.496,56.823,43.185,104.186,100,106h512.732L680.4,1800H567.667c-55.229,0-100,44.771-100,100s44.771,100,100,100
				h1000c55.228,0,99.999-44.771,99.999-100s-44.771-100-99.999-100h-112.733l-66.666-133.333H1901
				c56.814-1.813,101.496-49.177,100-106V239.333C2002.496,182.509,1957.814,135.147,1901,133.333z M201,239.333
				c-1.232-19.928,13.474-37.28,33.333-39.333H441.9c-26.563,51.49-40.577,108.53-40.9,166.467
				c-1.133,195.435-32.066,296.866-200,342.3V239.333z M129.2,908.366c-16.412,0.824-32.417-5.277-44.116-16.817
				s-18.018-27.46-17.417-43.882c0.03-27.644,20.527-50.99,47.933-54.601c294.1-38.134,350.633-179.2,352.067-426.2
				c-0.276-165.687,133.813-300.224,299.5-300.5c165.685-0.276,300.224,133.813,300.5,299.5
				c0.666,115.2,10.833,207.633,56.666,279.399c-75.787,223.681-229.894,412.414-433.899,531.4
				C628.467,1078.1,634.333,982.5,634.333,900c0-18.409-14.924-33.333-33.333-33.333S567.667,881.591,567.667,900
				c0,105.366-2.5,200.333,64.667,309.2c-21.9,11.333-42.134,20.833-60,28.7C494.8,1112.8,501,1008.134,501,911.667
				c-0.018-32.297-26.137-58.505-58.434-58.634C408.066,853.033,372.434,897.733,129.2,908.366L129.2,908.366z M1601,1900
				c0,18.409-14.924,33.333-33.333,33.333h-1000c-18.409,0-33.334-14.924-33.334-33.333s14.925-33.333,33.334-33.333h1000
				C1586.076,1866.667,1601,1881.591,1601,1900z M1380.4,1800H754.934l66.666-133.333h492.135L1380.4,1800z M1901,1600H234.333
				c-19.86-2.054-34.565-19.405-33.333-39.333v-94h133.333c18.41,0,33.334-14.924,33.334-33.334
				c0-18.409-14.924-33.333-33.334-33.333H201V970.467c79.604-4.219,158.188-19.868,233.333-46.467v61.333
				c-0.289,97.417,25.577,193.126,74.9,277.134c-10.768,3.633-16.935,5.366-17.066,5.399c-16.075,4.435-26.4,20.064-24.171,36.591
				c2.229,16.526,16.328,28.861,33.004,28.876c24.34-5.557,48.134-13.276,71.1-23.066
				c356.019-139.323,609.092-459.985,661.867-838.634c2.762-18.207-9.76-35.205-27.967-37.966
				c-18.207-2.762-35.205,9.759-37.967,27.966c-4.167,27.801-9.467,55.269-15.633,82.334c-38.834-139.634,10-210-58.7-344.034H1901
				c19.859,2.053,34.564,19.406,33.333,39.333V1400H467.666c-18.409,0-33.333,14.924-33.333,33.333s14.924,33.333,33.333,33.333
				h1466.667v94C1935.564,1580.594,1920.859,1597.946,1901,1600L1901,1600z"/>
			<path id="Shape_13_" d="M634.333,466.667c59.622-5.013,104.165-56.979,100-116.667c4.165-59.687-40.378-111.654-100-116.667
				c-59.622,5.012-104.165,56.979-100,116.667C530.168,409.688,574.711,461.654,634.333,466.667z M634.333,300
				c17.767,0,33.334,23.333,33.334,50s-15.567,50-33.334,50S601,376.667,601,350S616.566,300,634.333,300z"/>
			<path id="Shape_14_" d="M901,466.667c59.622-5.013,104.165-56.979,100-116.667c4.165-59.687-40.378-111.654-100-116.667
				c-59.622,5.013-104.165,56.98-100,116.667C796.835,409.688,841.378,461.654,901,466.667z M901,300
				c17.768,0,33.333,23.333,33.333,50S918.768,400,901,400s-33.333-23.333-33.333-50S883.232,300,901,300z"/>
			<path id="Shape_15_" d="M667.667,566.667c0,55.229,44.771,100,100,100s100-44.771,100-100s-44.771-100-100-100
				S667.667,511.438,667.667,566.667z M767.667,533.333c18.409,0,33.333,14.924,33.333,33.334C801,585.076,786.076,600,767.667,600
				s-33.334-14.924-33.334-33.333C734.333,548.257,749.258,533.333,767.667,533.333z"/>
			<path id="Shape_16_" d="M801,1333.333c5.146,0.052,10.234-1.089,14.867-3.333c19.731-10,483.666-248.5,551.566-859.5
				c1.31-11.837-3.796-23.475-13.393-30.527c-9.597-7.054-22.227-8.451-33.133-3.667c-10.907,4.784-18.434,15.023-19.742,26.861
				c-33.632,335.604-224.861,635.212-515.102,807.033c-13.813,6.924-21.06,22.435-17.502,37.473
				C772.121,1322.711,785.547,1333.332,801,1333.333L801,1333.333z"/>
		</g>
	</g>
</g>
</svg>
