<?xml version="1.0" encoding="utf-8"?>
<!-- Generator: Adobe Illustrator 16.0.3, SVG Export Plug-In . SVG Version: 6.00 Build 0)  -->
<!DOCTYPE svg PUBLIC "-//W3C//DTD SVG 1.1//EN" "http://www.w3.org/Graphics/SVG/1.1/DTD/svg11.dtd">
<svg version="1.1" id="Capa_1" xmlns="http://www.w3.org/2000/svg" xmlns:xlink="http://www.w3.org/1999/xlink" x="0px" y="0px"
	 viewBox="0 0 2000 2000" enable-background="new 0 0 2000 2000" xml:space="preserve">
<path fill="#FCD088" d="M1983.727,1178.156l-213.94-188.719l206.375-196.871c7.582-7.234,10.703-17.935,8.198-28.082
	c-2.508-10.146-10.27-18.185-20.354-21.099l-274.672-79.266l101.517-265.844c3.729-9.767,1.934-20.767-4.703-28.863
	c-6.642-8.094-17.121-12.051-27.492-10.379l-282.32,45.516l-22.961-283.441c-0.844-10.414-7.211-19.59-16.699-24.066
	s-20.668-3.582-29.313,2.348l-235.414,161.492L1028.941,14.617C1023.688,5.57,1013.98,0,1003.473,0
	c-10.507,0-20.211,5.57-25.465,14.617L813.855,297.305L529.91,133.426c-9.09-5.246-20.301-5.27-29.406-0.07
	c-9.113,5.199-14.738,14.84-14.766,25.285l-0.688,284.355l-285.02-23.492c-10.449-0.859-20.605,3.896-26.59,12.477
	c-5.988,8.582-6.918,19.691-2.43,29.138l122.039,257.168L25.422,818.602c-9.828,3.685-16.934,12.306-18.645,22.613
	c-1.711,10.305,2.246,20.734,10.375,27.355l221.168,180.28L39.832,1253.578c-7.289,7.52-9.996,18.336-7.094,28.375
	c2.906,10.039,10.977,17.772,21.168,20.289l277.559,68.559l-90.996,269.574c-3.344,9.902-1.117,20.824,5.836,28.656
	c6.957,7.832,17.586,11.379,27.879,9.305l280.313-56.418l34.065,282.336c1.246,10.371,7.974,19.289,17.629,23.398
	c9.664,4.108,20.794,2.78,29.199-3.48l228.892-170.496l152.559,232.68c5.398,8.513,14.801,13.642,24.871,13.642
	c0.383,0,0.766-0.008,1.152-0.023c10.495-0.405,19.979-6.352,24.875-15.594l133.229-243.77l241.559,152.241
	c8.879,5.595,20.066,6.056,29.384,1.212c9.305-4.845,15.309-14.259,15.741-24.695l11.84-284.117l283.884,34.531
	c10.405,1.266,20.741-3.09,27.063-11.434c6.32-8.349,7.681-19.41,3.57-29.023l-111.859-261.707l271.349-89.854
	c9.969-3.302,17.406-11.638,19.52-21.871C1995.125,1195.664,1991.582,1185.09,1983.727,1178.156z"/>
<ellipse fill="#FFFFFF" cx="993.555" cy="994.887" rx="605.738" ry="605.27"/>
</svg>
