<svg id="Capa_1" enable-background="new 0 0 512 512" viewBox="0 0 512 512" xmlns="http://www.w3.org/2000/svg"><path d="m256 420c-90.981 0-165-74.019-165-165s74.019-165 165-165 165 74.019 165 165-74.019 165-165 165z" fill="#fff546"/><path d="m421 255c0-90.981-74.019-165-165-165v330c90.981 0 165-74.019 165-165z" fill="#ffdc28"/><path d="m497 512h-175.274c-8.284 0-15-6.716-15-15v-126.275c0-4.959 2.451-9.598 6.548-12.392 43.371-29.581 93.912-47.847 146.16-52.823l36.144-3.442c4.205-.398 8.387.991 11.514 3.834 3.126 2.843 4.908 6.872 4.908 11.098v180c0 8.284-6.716 15-15 15z" fill="#78af28"/><path d="m256 60c-8.284 0-15-6.716-15-15v-30c0-8.284 6.716-15 15-15s15 6.716 15 15v30c0 8.284-6.716 15-15 15z" fill="#fff546"/><path d="m327.823 72.668c-1.704 0-3.436-.292-5.129-.909-7.785-2.833-11.798-11.441-8.965-19.226l10.261-28.191c2.833-7.785 11.442-11.798 19.226-8.965 7.785 2.833 11.798 11.441 8.965 19.226l-10.261 28.191c-2.217 6.092-7.97 9.874-14.097 9.874z" fill="#ffdc28"/><path d="m390.978 109.131c-3.403 0-6.824-1.151-9.634-3.51-6.346-5.325-7.174-14.787-1.849-21.132l19.284-22.981c5.325-6.347 14.786-7.174 21.132-1.849s7.174 14.787 1.849 21.132l-19.284 22.981c-2.967 3.536-7.218 5.359-11.498 5.359z" fill="#ffdc28"/><path d="m437.879 165.002c-5.185 0-10.226-2.69-13.004-7.502-4.142-7.174-1.684-16.348 5.49-20.49l25.981-15c7.175-4.143 16.349-1.684 20.49 5.49 4.142 7.174 1.684 16.348-5.49 20.49l-25.981 15c-2.362 1.364-4.941 2.012-7.486 2.012z" fill="#ffdc28"/><path d="m462.792 233.536c-7.143 0-13.471-5.12-14.754-12.398-1.438-8.158 4.009-15.938 12.167-17.376l29.544-5.209c8.154-1.439 15.938 4.009 17.376 12.167s-4.009 15.938-12.167 17.376l-29.544 5.209c-.881.156-1.757.231-2.622.231z" fill="#ffdc28"/><g fill="#fff546"><path d="m49.208 233.536c-.865 0-1.741-.075-2.622-.23l-29.544-5.209c-8.159-1.438-13.606-9.218-12.167-17.376 1.438-8.159 9.219-13.608 17.376-12.167l29.544 5.209c8.159 1.438 13.606 9.218 12.167 17.376-1.283 7.277-7.612 12.397-14.754 12.397z"/><path d="m74.121 165.002c-2.545 0-5.124-.648-7.486-2.012l-25.981-15c-7.174-4.142-9.632-13.316-5.49-20.49 4.141-7.175 13.316-9.634 20.49-5.49l25.981 15c7.174 4.142 9.632 13.316 5.49 20.49-2.778 4.812-7.82 7.502-13.004 7.502z"/><path d="m121.022 109.131c-4.281 0-8.531-1.823-11.499-5.359l-19.283-22.981c-5.325-6.346-4.497-15.807 1.849-21.132s15.807-4.498 21.132 1.849l19.284 22.981c5.325 6.346 4.497 15.807-1.849 21.132-2.81 2.358-6.231 3.51-9.634 3.51z"/><path d="m184.177 72.668c-6.127 0-11.879-3.782-14.096-9.874l-10.261-28.19c-2.833-7.785 1.18-16.393 8.965-19.226 7.783-2.835 16.393 1.18 19.226 8.965l10.261 28.191c2.833 7.785-1.18 16.392-8.965 19.226-1.694.616-3.427.908-5.13.908z"/></g><path d="m271 45v-30c0-8.284-6.716-15-15-15v60c8.284 0 15-6.716 15-15z" fill="#ffdc28"/><path d="m496.999 512h-481.999c-8.284 0-15-6.716-15-15v-200c0-8.284 6.716-15 15-15 88.174 0 174.392 16.604 256.259 49.351 81.868 32.747 157.752 80.184 221.602 140.994l14.483 13.793c4.442 4.23 5.86 10.738 3.583 16.433-2.278 5.695-7.794 9.429-13.928 9.429z" fill="#aae632"/><path d="m492.861 472.345c-63.85-60.81-139.734-108.247-221.602-140.994-5.07-2.028-10.157-3.993-15.259-5.897v186.546h240.999c6.133 0 11.649-3.734 13.927-9.429s.859-12.203-3.583-16.433z" fill="#8cc828"/></svg>